<svg id="Group_42" data-name="Group 42" xmlns="http://www.w3.org/2000/svg" xmlns:xlink="http://www.w3.org/1999/xlink" width="207.118" height="125.196" viewBox="0 0 207.118 125.196">
<defs>
<clipPath id="clip-path">
<rect id="Rectangle_79" data-name="Rectangle 79" width="207.118" height="125.196" fill="rgba(255,255,255,0.45)"/>
</clipPath>
</defs>
<g id="Group_41" data-name="Group 41" clip-path="url(#clip-path)">
<path id="Path_8" data-name="Path 8" d="M131.382.232A125.914,125.914,0,0,0,81.5,16.024c-6.52,3.732-9.557,5.947-13.534,9.844a51.164,51.164,0,0,0-.9,71.413,24.347,24.347,0,0,1,3.157,3.61c-.492.492-10.377,3.24-14.931,4.225-4.922,1.025-6.07,1.107-14.767,1.107-8.245,0-9.967-.082-13.619-.9C18.169,103.393,9.392,99.456,3.362,94.7L0,92.031l1.8,2.585c21.986,31.461,66.943,39.542,111.406,20.059,19.279-8.45,29.861-17.186,36.178-29.778A51.319,51.319,0,0,0,140.4,26.445L137.249,23.2l3.937-1.23c19.442-5.989,37.163-5.455,52.012,1.64a53.618,53.618,0,0,1,11.732,7.3,17.224,17.224,0,0,0,2.175,1.722,11.475,11.475,0,0,0-1.517-2.462C194.305,14.1,175.6,3.554,153.123.642a148.115,148.115,0,0,0-21.741-.41M108.4,43.371a22.481,22.481,0,0,1,3.655,1.311,19,19,0,0,1,10.915,18.326A17.3,17.3,0,0,1,121,70.6a19.062,19.062,0,0,1-14.469,10.46c-9.755,1.562-19.561-5.42-21.452-15.352A19.159,19.159,0,0,1,95.719,44.68a21.479,21.479,0,0,1,6.151-1.79,26.19,26.19,0,0,1,6.529.481" transform="translate(0 0)" fill="rgba(255,255,255,0.45)"/>
</g>
</svg>